<?xml version="1.0" encoding="UTF-8"?>
<svg id="Layer_1" data-name="Layer 1" xmlns="http://www.w3.org/2000/svg" xmlns:xlink="http://www.w3.org/1999/xlink" version="1.1" viewBox="0 0 507.6 123.8">
  <defs>
    <style>
      .cls-1 {
        fill: url(#linear-gradient);
      }

      .cls-1, .cls-2, .cls-3, .cls-4, .cls-5 {
        stroke-width: 0px;
      }

      .cls-2 {
        fill: #36495a;
      }

      .cls-3 {
        fill: url(#linear-gradient-4);
      }

      .cls-4 {
        fill: url(#linear-gradient-2);
      }

      .cls-5 {
        fill: url(#linear-gradient-3);
      }
    </style>
    <linearGradient id="linear-gradient" x1="-366.5" y1="399.7" x2="-366.5" y2="370.1" gradientTransform="translate(1446.6 1146.2) scale(2.7 -2.7)" gradientUnits="userSpaceOnUse">
      <stop offset="0" stop-color="#ed1c24"/>
      <stop offset=".1" stop-color="#e81b23"/>
      <stop offset=".3" stop-color="#db1a21"/>
      <stop offset=".4" stop-color="#c4171d"/>
      <stop offset=".6" stop-color="#a41317"/>
      <stop offset=".7" stop-color="#7b0e10"/>
      <stop offset=".8" stop-color="#780e0f"/>
    </linearGradient>
    <linearGradient id="linear-gradient-2" x1="-380" y1="397.3" x2="-369.2" y2="397.3" gradientTransform="translate(1446.6 1146.2) scale(2.7 -2.7)" gradientUnits="userSpaceOnUse">
      <stop offset="0" stop-color="#69231d"/>
      <stop offset=".3" stop-color="#8d2922"/>
      <stop offset=".6" stop-color="#b22f26"/>
      <stop offset=".8" stop-color="#c93329"/>
      <stop offset="1" stop-color="#d1342a"/>
    </linearGradient>
    <linearGradient id="linear-gradient-3" x1="-381.2" y1="398.8" x2="-369.2" y2="406.1" gradientTransform="translate(1446.6 1146.2) scale(2.7 -2.7)" gradientUnits="userSpaceOnUse">
      <stop offset="0" stop-color="#e7ebee"/>
      <stop offset=".4" stop-color="#d5dce0"/>
      <stop offset=".9" stop-color="#a5b4bb"/>
      <stop offset="1" stop-color="#96a7b0"/>
    </linearGradient>
    <linearGradient id="linear-gradient-4" x1="-387.8" y1="404.9" x2="-387.8" y2="425.4" gradientTransform="translate(1446.6 1146.2) scale(2.7 -2.7)" gradientUnits="userSpaceOnUse">
      <stop offset="0" stop-color="#1c2f72"/>
      <stop offset=".1" stop-color="#174687"/>
      <stop offset=".4" stop-color="#0d72af"/>
      <stop offset=".7" stop-color="#0692cc"/>
      <stop offset=".9" stop-color="#02a6de"/>
      <stop offset="1" stop-color="#00ade4"/>
    </linearGradient>
  </defs>
  <path class="cls-1" d="M438,111.9c7,11.5,18.3,11.3,21.2,11.3h36.1l-42.6-51.7c-19.7.8-30,13.4-27.9,18.7l13.2,21.7Z"/>
  <path class="cls-4" d="M424.8,90.3c0,0-1.2-2.7-1.2-5.8,0-11.8,10.5-18.6,22.3-21l6.7,8.2c-19.7.8-30,13.4-27.9,18.7Z"/>
  <path class="cls-5" d="M441.2,51.9c-18,0-31.4,3-31.4,10s.8,4.8,3,8.8l11.9,19.6c0,0-1.2-2.7-1.2-5.8,0-11.8,10.5-18.6,22.3-21,3.4-.7,7-1,10.4-1s5.7.2,7.8.9c-1.2-4.5-4.5-11.4-23-11.4Z"/>
  <path class="cls-3" d="M394,39.7c4.9,8.1,6.8,10.1,18.5,10.1h22.5l-31-39.1c-6.8-8.5-10.8-10-17-10.1h-16.8l23.8,39.1Z"/>
  <path class="cls-2" d="M348.2,98.7v-29.5c0-5.6-2.6-9.1-7.4-9.1s-10.6,6.8-10.6,15.9v22.6h-10.3v-33.5c0-3.7-.3-9.1-.5-12.1h8.3c.9,0,1.2.4,1.2,1.2,0,1,.1,5.7.1,5.7h.2c1.3-2.2,4.4-7.9,14-7.9s15.4,6.7,15.4,14.3v32.3h-10.4ZM267.2,88.7c.3,0,.7.2.8,1,.2,2.2.3,5.7.3,6.8-2.1,1-6.6,3.1-12.1,3.1-13.8,0-22.3-8-22.3-23.7s7.5-23.7,22.3-23.7,9.4,1.7,12.1,3.1c0,1.6-.2,5.3-.3,6.9,0,.6-.4,1-.8,1s-.5-.1-.8-.2c-3.3-1.6-6.5-2.4-9.3-2.4-8.8,0-12.4,5.8-12.4,15.5s2.9,15.5,12.4,15.5,6.9-1.3,9-2.3c.5-.3.6-.4,1.1-.4ZM303,98.7c-.8,0-1.5-.3-1.6-1.5-.1-1.5-.3-4.4-.3-4.4-.8.8-4.5,6.7-14,6.7s-14.3-7-14.3-14.7,10.3-16,25.7-16h2v-1.7c0-4.8-3.4-7.3-9.7-7.3s-10.5,2-12.3,2.9c-.1,0-.5.3-.8.3-.5,0-.8-.3-.8-.8,0-1.7-.3-5-.3-7.1,1.9-.7,8.1-3,14.9-3,13.6,0,19.4,6.3,19.4,16.3v17.8c0,6.5.6,10.7.8,12.4,0,0-7.9,0-8.7,0ZM300.5,75.6h-1.7c-13,0-15.6,4.5-15.6,9.1s2.5,7.3,7.3,7.3,10-6.2,10-12.8v-3.6ZM170.6,88.7c.6,0,.7.5.8,1,.2,1.9.3,6.4.3,7.5-1.1.3-6.7,2.4-14.2,2.4-14.5,0-23.3-7.5-23.3-23.7s7.5-23.7,20.9-23.7,19.4,8.8,19.4,19.7-.1,3.4-.4,6.3h-29.3c0,7.8,5,13.4,14.1,13.4s9.1-1.8,10.7-2.6c.3-.2.5-.3.9-.3h0ZM145,71.2h19.2c.4-7.3-3.4-11.5-9.3-11.5s-9.6,4.4-9.9,11.5ZM116.4,98.7v-29.2c0-5.2-2.2-9.3-7.6-9.3s-9.5,6.6-9.5,15.9v22.7h-10.4v-29.3c0-4.8-2-9.3-7.6-9.3s-9.6,6.6-9.6,16.2v22.3h-10.4v-33.2c0-4.3-.4-10.4-.5-12.4h8.3c.9,0,1.2.3,1.3,1.3,0,1.2.1,5.7.1,5.7h.2c.6-1.3,4-7.9,13.5-7.9s12.2,6.4,13.1,8.3c.8-1.7,4.8-8.3,13.7-8.3s15.6,5,15.6,15v31.6h-10.3ZM192.9,76.5v22.3h-10.4v-33.9c0-3.3-.4-9.5-.5-11.7h8.4c.9,0,1.2.4,1.2,1.3,0,1.3.1,5.7.1,5.7h.2c.8-2,3.8-7.9,12.4-7.9s5,.9,5.4,1.1c0,2-.2,6.3-.3,7.4,0,.8-.4,1-.8,1s-.5,0-.7-.2c-.6-.3-2.2-.7-4.2-.7-5.5,0-10.7,4-10.7,15.7ZM215.1,98.7v-45.6h10.3v45.6h-10.3ZM215,46.4v-10h10.6v10h-10.6ZM45.7,98.7l-4.8-13.5H15.6l-4.8,13.5H0l22.7-59.9h12.1l22.4,59.9h-11.5ZM28.4,49.7h-.2l-9.7,27.4h19.6l-9.7-27.4ZM504.9,120.5c0,1.5-1.2,2.7-2.7,2.7s-2.7-1.2-2.7-2.7,1.2-2.7,2.7-2.7c1.5,0,2.7,1.2,2.7,2.7ZM499.9,120.5c0,1.2,1,2.2,2.2,2.2s2.2-1,2.2-2.2-1-2.2-2.2-2.2c-1.2,0-2.2,1-2.2,2.2ZM502,120.7h-.2v1.1h-.5v-2.7h.8c.6,0,1,.3,1,.8s-.5.7-.5.7l.7,1.2h-.6l-.6-1.1ZM502,120.4c.4,0,.6-.2.6-.5s-.2-.5-.6-.5-.2,0-.2,0v.9s.1,0,.2,0h0Z"/>
</svg>