<?xml version="1.0" encoding="UTF-8"?>
<svg id="Ebene_1" data-name="Ebene 1" xmlns="http://www.w3.org/2000/svg" xmlns:xlink="http://www.w3.org/1999/xlink" version="1.1" viewBox="0 0 266.4 36.6">
  <defs>
    <style>
      .cls-1 {
        fill-rule: evenodd;
      }

      .cls-1, .cls-2, .cls-3, .cls-4, .cls-5 {
        stroke-width: 0px;
      }

      .cls-1, .cls-4 {
        fill: #d81e05;
      }

      .cls-6 {
        clip-path: url(#clippath);
      }

      .cls-2 {
        fill: none;
      }

      .cls-3 {
        fill: url(#linear-gradient);
      }

      .cls-7 {
        clip-path: url(#clippath-1);
      }

      .cls-5 {
        fill: url(#linear-gradient-2);
      }
    </style>
    <linearGradient id="linear-gradient" x1="228.5" y1="48" x2="233.7" y2="23.3" gradientTransform="translate(0 52) scale(1 -1)" gradientUnits="userSpaceOnUse">
      <stop offset="0" stop-color="#fff"/>
      <stop offset=".2" stop-color="#fcfcfc"/>
      <stop offset=".4" stop-color="#f2f2f2"/>
      <stop offset=".6" stop-color="#e1e2e2"/>
      <stop offset=".7" stop-color="#c9cacc"/>
      <stop offset=".7" stop-color="#c6c7c8"/>
    </linearGradient>
    <clipPath id="clippath">
      <path class="cls-2" d="M217.6,6.5s3.7-.6,4.9.8c1.2,1.4,3,5.1-11.6,17.9l-11.3-15.4,10.8-4.1,7.2.8Z"/>
    </clipPath>
    <linearGradient id="linear-gradient-2" x1="1400.7" y1="-317.3" x2="1433.9" y2="-317.3" gradientTransform="translate(-1092.9 -285.7) scale(.9 -.9)" gradientUnits="userSpaceOnUse">
      <stop offset="0" stop-color="#fff"/>
      <stop offset="0" stop-color="#fbfbfb"/>
      <stop offset=".2" stop-color="#eeefef"/>
      <stop offset=".3" stop-color="#dadadb"/>
      <stop offset=".4" stop-color="#bdbdbe"/>
      <stop offset=".5" stop-color="#98999a"/>
      <stop offset=".5" stop-color="#87888a"/>
    </linearGradient>
    <clipPath id="clippath-1">
      <path class="cls-2" d="M217.6,6.5s3.7-.6,4.9.8c1.2,1.4,3,5.1-11.6,17.9l-11.3-15.4,10.8-4.1,7.2.8Z"/>
    </clipPath>
  </defs>
  <g>
    <path class="cls-1" d="M157.7,35.2c-1,.9-2.5,1.4-4.1,1.4-2.7,0-4-.8-4.7-2.4-1.5,1.8-3.4,2.4-6,2.4-4.1,0-6.8-2.1-6.8-5.8s3.5-5.8,8.2-7.3h.4c2.4-.8,4.2-1.7,4.2-3.7v-1c0-3-1.4-4.6-3.9-4.6s-2.8.9-3.1,3c-.1,1.1-.6,2.3-2.1,2.3s-2.1-.8-2.1-1.9c0-2.7,3.1-4.5,7.6-4.5s7.8,2.2,7.8,6.8v11.2c0,3,.5,4,1.9,4s1.4-.2,2.1-.7l.6.9ZM149,28.8v-6c-.9.5-1.7.9-2.5,1.4-3.4,1.8-5.9,3.2-5.9,6.8s1.6,4.2,3.7,4.2c3,0,4.7-2.3,4.7-6.3Z"/>
    <path class="cls-4" d="M10.8,20.7h11l-5.4-13.8-5.5,13.8ZM22.3,22.1h-12.1l-1,2.4c-1.2,2.9-1.9,5.5-1.9,6.9,0,2.2,1.6,3.2,4.6,3.6v.9H0v-1c3.6-.2,5.2-4.7,9.1-14.2L17.6,0h1.1l10.7,26.3c2.2,5.5,3.4,8.5,6.8,8.6v1h-14.6v-.9c2.8-.2,4.3-.9,4.3-2.7,0-.9-.5-2.3-1.3-4.3l-2.3-5.8Z"/>
    <path class="cls-4" d="M58,13.9h-7.8v1h.4c3.3,0,3.4,1.1,3.4,6.8v6.6c0,2.1,0,3.5-1.2,4.8-1.1,1.3-2.7,2.1-4.3,2.1-3,0-4.5-2.1-4.5-6.1v-15.2h-8v1h.4c3.3,0,3.4,1.1,3.4,6.8v7.2c0,5,2.1,7.8,7.3,7.8s4.9-.9,6.9-2.7v2.5l1.2-.2c2.2-.3,4.2-.6,6.2-.8h.1v-.8h-.1c-2.5-.2-3.2-1.2-3.2-4.4V13.9h-.1Z"/>
    <path class="cls-4" d="M66.5,19.1c0,4,3.3,5.4,6.8,7.3,2.4,1.3,4.1,2.8,4.1,5s-1.5,3.8-3.8,3.8c-3.4,0-5.4-1.7-6.7-6.7h0c0,0-.7,0-.7,0v7.8h.7c.5-.8.9-1.1,1.4-1.1s.6.2,1,.4c.9.4,2.5,1.1,4.5,1.1,4.3,0,7.4-2.9,7.4-6.8s-.7-3.4-2-4.7c-1.1-1.1-2.9-2.2-4.9-3.2-2.8-1.5-4.6-2.5-4.6-4.7s1.5-3,3.4-3,4.8,2,5.6,5.7h0c0,.1.7.1.7.1v-6.7h-.7c-.2.7-.5.9-1,.9s-.6-.2-1-.3c-.9-.4-2.2-.9-3.8-.9-3.7,0-6.5,2.5-6.5,6.1Z"/>
    <path class="cls-4" d="M99.6,34.8c-1.2,1.2-2.8,1.8-4.9,1.8-4.1,0-6.1-1.9-6.1-5.5s.2-16,.2-16h-2.8v-1.2h.1c3-.5,4.6-2.2,5.8-6h0c0,0,.9,0,.9,0h.1v6c0,0,5.6,0,5.6,0v1.3h-5.7v14.4c-.1,0-.1.6-.1.6,0,3.1.9,4.8,3.4,4.8s1.9-.3,2.6-1l.7.8Z"/>
    <path class="cls-4" d="M108.7,13.2c-2.1.7-4.4,1.3-6.9,1.7h-.1v.8h.1c2.7.2,3.5,1.2,3.5,4.5v7.8c0,5.8,0,6.9-3.4,6.9h-.3v1h12.3v-1h-.4c-2,0-2.9-.3-3.3-1.2-.5-1-.6-2.8-.6-5.5v-4.4c0-5.2,2-8.5,3.8-8.5s1.3.5,1.8,1.2c.5.7,1,1.6,2.2,1.6s2-.8,2-1.9c0-1.8-1.6-2.9-3.9-2.9s-4.6,1.3-6,4.2c0-1.6,0-2.7-.2-3.9h0c0,0-.4-.2-.4-.2h0Z"/>
    <g>
      <path class="cls-4" d="M123.9,4.7c0,1.5,1.1,2.5,2.5,2.5s2.5-1,2.5-2.5-1.2-2.5-2.5-2.5-2.5,1.2-2.5,2.5Z"/>
      <path class="cls-4" d="M128.5,13.2c-2.3.6-4.7,1.2-7.6,1.7h-.1v.8h.1c2.7.2,3.5,1.2,3.5,4.5v7.9c0,5.8,0,6.9-3.4,6.9h-.3v1h11.7v-1h-.3c-3.3,0-3.4-1-3.4-6.9v-14.8h-.2Z"/>
    </g>
    <path class="cls-4" d="M166.9,13.2c-2.1.7-4.4,1.3-6.9,1.7h-.1v.8h.1c2.7.2,3.5,1.2,3.5,4.5v7.8c0,5.8,0,6.9-3.4,6.9h-.3v1h11.7v-1h-.3c-3.3,0-3.4-1-3.4-6.9v-6.9c0-1.7,0-3.1,1.1-4.4,1.1-1.3,2.7-2.1,4.3-2.1,3,0,4.5,2,4.5,6v7.3c0,5.9,0,6.9-3.4,6.9h-.3v1h11.7v-1h-.3c-3.3,0-3.4-1.1-3.4-6.9v-7.3c0-4.8-2-7.6-7.1-7.6s-5,.8-7.1,2.8c0-.4-.3-2.5-.3-2.5h-.4c0-.1,0-.1,0-.1Z"/>
  </g>
  <g>
    <path class="cls-3" d="M266.4,0s-25.5,1.9-46.2,5.9c0,0-1.6.3-2.6.5,0,0,3.7-.6,4.9.8,1.2,1.4,3,5.1-11.6,17.9-4.9,4.2-10.3,8-14.4,10.7l9.6-1.6c4.5-4.3,16.3-13.9,26.8-19.4C250.6,5.6,264.5.7,266.3.1c.1,0,0,0,0,0Z"/>
    <path class="cls-4" d="M266.4,0s-25.5,1.9-46.2,5.9c0,0-1.6.3-2.6.5,0,0,3.7-.6,4.9.8,1.2,1.4,3,5.1-11.6,17.9-4.9,4.2-10.3,8-14.4,10.7l9.6-1.6c4.5-4.3,16.3-13.9,26.8-19.4C250.6,5.6,264.5.7,266.3.1c.1,0,0,0,0,0Z"/>
    <g>
      <g class="cls-6">
        <path class="cls-5" d="M202.8,9.8l8.8,1.3c16.5-7.7,15.7.7,15.7.7l6-8.2c-4.4.7-8.8,1.4-13.1,2.2,0,0-1.6.3-2.6.5l-14.8,3.3h0s0,0,0,0,0,0,0,0c0,0,0,0,0,0Z"/>
      </g>
      <g class="cls-7">
        <path class="cls-4" d="M202.8,9.8l8.8,1.3c16.5-7.7,15.7.7,15.7.7l6-8.2c-4.4.7-8.8,1.4-13.1,2.2,0,0-1.6.3-2.6.5l-14.8,3.3h0s0,0,0,0,0,0,0,0c0,0,0,0,0,0Z"/>
      </g>
    </g>
  </g>
</svg>