<?xml version="1.0" encoding="utf-8"?>
<!-- Generator: Adobe Illustrator 28.3.0, SVG Export Plug-In . SVG Version: 6.00 Build 0)  -->
<svg version="1.1" id="Layer_1" xmlns="http://www.w3.org/2000/svg" xmlns:xlink="http://www.w3.org/1999/xlink" x="0px" y="0px"
	 viewBox="0 0 239.2 309.7" style="enable-background:new 0 0 239.2 309.7;" xml:space="preserve">
<style type="text/css">
	.st0{fill:#BBB7B4;}
</style>
<g>
	<path class="st0" d="M215.2,9c8.3,0,15,6.7,15,15v261.7c0,8.3-6.7,15-15,15H24c-8.3,0-15-6.7-15-15V24c0-8.3,6.7-15,15-15H215.2
		 M215.2,0H24C10.8,0,0,10.8,0,24v261.7c0,13.2,10.8,24,24,24h191.2c13.2,0,24-10.8,24-24V24C239.2,10.8,228.4,0,215.2,0L215.2,0z"
		/>
</g>
<path class="st0" d="M166,36.6c0,2.8-2.2,5-5,5H80.8c-2.8,0-5-2.2-5-5l0,0c0-2.8,2.2-5,5-5H161C163.8,31.6,166,33.8,166,36.6
	L166,36.6z"/>
<g>
	<g transform="translate(0.000000,704.000000) scale(0.100000,-0.100000)">
		<path class="st0" d="M341.1,4575.4v-281.5h20.4h20.4v281.5v281.5h-20.4h-20.4V4575.4z"/>
		<path class="st0" d="M411.1,4575.4v-281.5h8.7h8.7v281.5v281.5h-8.7h-8.7V4575.4z"/>
		<path class="st0" d="M478.1,4575.4v-281.5h8.7h8.7v281.5v281.5h-8.7h-8.7V4575.4z"/>
		<path class="st0" d="M594.8,4575.4v-281.5h42.3h42.3v281.5v281.5h-42.3h-42.3V4575.4z"/>
		<path class="st0" d="M708.5,4575.4v-281.5h8.7h8.7v281.5v281.5h-8.7h-8.7V4575.4z"/>
		<path class="st0" d="M755.2,4575.4v-281.5h32.1h32.1v281.5v281.5h-32.1h-32.1V4575.4z"/>
		<path class="st0" d="M848.5,4575.4v-281.5h30.6h30.6v281.5v281.5h-30.6h-30.6V4575.4z"/>
		<path class="st0" d="M938.9,4575.4v-281.5h8.7h8.7v281.5v281.5h-8.7h-8.7V4575.4z"/>
		<path class="st0" d="M1029.3,4575.4v-281.5h20.4h20.4v281.5v281.5h-20.4h-20.4V4575.4z"/>
		<path class="st0" d="M1099.3,4575.4v-281.5h8.7h8.7v281.5v281.5h-8.7h-8.7V4575.4z"/>
		<path class="st0" d="M1213.1,4575.4v-281.5h20.4h20.4v281.5v281.5h-20.4h-20.4V4575.4z"/>
		<path class="st0" d="M1283.1,4575.4v-281.5h8.7h8.7v281.5v281.5h-8.7h-8.7V4575.4z"/>
		<path class="st0" d="M1353,4575.4v-281.5h19h19v281.5v281.5h-19h-19V4575.4z"/>
		<path class="st0" d="M1490.1,4575.4v-281.5h8.7h8.7v281.5v281.5h-8.7h-8.7V4575.4z"/>
		<path class="st0" d="M1560.1,4575.4v-281.5h8.7h8.7v281.5v281.5h-8.7h-8.7V4575.4z"/>
		<path class="st0" d="M1606.8,4575.4v-281.5h7.3h7.3v281.5v281.5h-7.3h-7.3V4575.4z"/>
		<path class="st0" d="M1720.5,4575.4v-281.5h20.4h20.4v281.5v281.5h-20.4h-20.4V4575.4z"/>
		<path class="st0" d="M1787.6,4575.4v-281.5h8.7h8.7v281.5v281.5h-8.7h-8.7V4575.4z"/>
		<path class="st0" d="M1857.6,4575.4v-281.5h8.7h8.7v281.5v281.5h-8.7h-8.7V4575.4z"/>
		<path class="st0" d="M1904.2,4575.4v-281.5h8.7h8.7v281.5v281.5h-8.7h-8.7V4575.4z"/>
		<path class="st0" d="M1971.3,4575.4v-281.5h43.7h43.7v281.5v281.5H2015h-43.7V4575.4z"/>
	</g>
</g>
<path class="st0" d="M85.4,156.9c4.5-3.4,9.5-6.1,15.1-8.1s11.4-3,17.4-3s11.9,1,17.4,3c5.6,2,10.6,4.7,15.1,8.1
	c3.1-3.6,5.5-7.7,7.2-12.3s2.6-9.5,2.6-14.7c0-11.7-4.1-21.7-12.4-29.9S129.7,87.6,118,87.6S96.3,91.8,88,100s-12.4,18.2-12.4,29.9
	c0,5.2,0.9,10.1,2.6,14.7C80,149.2,82.4,153.3,85.4,156.9z M118,135.2c-5.2,0-9.6-1.8-13.2-5.4c-3.6-3.6-5.4-8-5.4-13.2
	s1.8-9.6,5.4-13.2s8-5.4,13.2-5.4s9.6,1.8,13.2,5.4c3.6,3.6,5.4,8,5.4,13.2s-1.8,9.6-5.4,13.2C127.5,133.4,123.2,135.2,118,135.2z
	 M118,182.8c-7.3,0-14.2-1.4-20.6-4.2s-12-6.5-16.8-11.3c-4.8-4.8-8.5-10.4-11.3-16.8c-2.8-6.4-4.2-13.3-4.2-20.6s1.4-14.2,4.2-20.6
	c2.8-6.4,6.5-12,11.3-16.8C85.4,87.7,91,84,97.4,81.2S110.7,77,118,77c7.3,0,14.2,1.4,20.6,4.2c6.4,2.8,12,6.5,16.8,11.3
	s8.5,10.4,11.3,16.8s4.2,13.3,4.2,20.6s-1.4,14.2-4.2,20.6c-2.8,6.4-6.5,12-11.3,16.8s-10.4,8.5-16.8,11.3
	C132.1,181.4,125.3,182.8,118,182.8z"/>
</svg>
