<?xml version="1.0" encoding="utf-8"?>
<!-- Generator: Adobe Illustrator 28.3.0, SVG Export Plug-In . SVG Version: 6.00 Build 0)  -->
<svg version="1.1" id="Layer_1" xmlns="http://www.w3.org/2000/svg" xmlns:xlink="http://www.w3.org/1999/xlink" x="0px" y="0px"
	 viewBox="0 0 300 300" style="enable-background:new 0 0 300 300;" xml:space="preserve">
<style type="text/css">
	.st0{fill:#FFFFFF;}
	.st1{fill:#BBB7B4;}
</style>
<rect x="6.2" y="33.6" class="st0" width="287.5" height="257.4"/>
<path class="st1" d="M280,0H20C9,0,0,9,0,20v8v0v252c0,11,9,20,20,20h260c11,0,20-9,20-20V28v0v-8C300,9,291,0,280,0z M291,280
	c0,6.1-4.9,11-11,11H20c-6.1,0-11-4.9-11-11V37h282V280z"/>
<circle class="st0" cx="62.6" cy="18.5" r="7.6"/>
<circle class="st0" cx="41" cy="18.5" r="7.6"/>
<circle class="st0" cx="19.5" cy="18.5" r="7.6"/>
</svg>
