<?xml version="1.0" encoding="utf-8"?>
<!-- Generator: Adobe Illustrator 28.3.0, SVG Export Plug-In . SVG Version: 6.00 Build 0)  -->
<svg version="1.1" id="Layer_1" xmlns="http://www.w3.org/2000/svg" xmlns:xlink="http://www.w3.org/1999/xlink" x="0px" y="0px"
	 viewBox="0 0 400 400" style="enable-background:new 0 0 400 400;" xml:space="preserve">
<style type="text/css">
	
		.st0{clip-path:url(#SVGID_00000013183029011879079290000014460651295816263052_);fill:url(#XMLID_00000121267238281818133710000013259984327571956864_);}
	.st1{clip-path:url(#SVGID_00000013183029011879079290000014460651295816263052_);}
	.st2{fill:#FFFFFF;}
	.st3{opacity:0.8;}
	.st4{opacity:0.28;fill:#FFFFFF;}
	.st5{opacity:0.57;fill:#FFFFFF;}
	
		.st6{clip-path:url(#SVGID_00000013183029011879079290000014460651295816263052_);fill:url(#SVGID_00000033333613478214574380000015925608515096883095_);}
	
		.st7{clip-path:url(#SVGID_00000013183029011879079290000014460651295816263052_);fill:url(#SVGID_00000091706847859513052170000010870526154753573005_);}
	
		.st8{clip-path:url(#SVGID_00000013183029011879079290000014460651295816263052_);fill:url(#SVGID_00000113327514123673850960000007659125606686472874_);}
	.st9{clip-path:url(#XMLID_00000041272692828405037370000004403447117183422114_);fill:#453D38;}
</style>
<g>
	<defs>
		<rect id="SVGID_1_" x="-106.4" width="600" height="400"/>
	</defs>
	<clipPath id="SVGID_00000003812586301637587980000001056280023044938150_">
		<use xlink:href="#SVGID_1_"  style="overflow:visible;"/>
	</clipPath>
	
		<radialGradient id="XMLID_00000116934480755725887020000010723863547065491111_" cx="193.1531" cy="438.8606" r="429.3042" gradientUnits="userSpaceOnUse">
		<stop  offset="0" style="stop-color:#4F4843"/>
		<stop  offset="0.5926" style="stop-color:#4F4843"/>
		<stop  offset="0.9998" style="stop-color:#170E07"/>
	</radialGradient>
	
		<rect id="XMLID_29_" x="-116.7" y="-3.7" style="clip-path:url(#SVGID_00000003812586301637587980000001056280023044938150_);fill:url(#XMLID_00000116934480755725887020000010723863547065491111_);" width="621.2" height="413"/>
	<g style="clip-path:url(#SVGID_00000003812586301637587980000001056280023044938150_);">
		<path class="st2" d="M81.4,35.4c0,0.8-0.6,1.4-1.4,1.4s-1.4-0.6-1.4-1.4c0-0.8,0.6-1.4,1.4-1.4S81.4,34.6,81.4,35.4z"/>
		<circle class="st2" cx="46.1" cy="14.4" r="0.7"/>
		<path class="st2" d="M39.2,100.8c0,0.8-0.6,1.4-1.4,1.4c-0.8,0-1.4-0.6-1.4-1.4s0.6-1.4,1.4-1.4C38.6,99.4,39.2,100,39.2,100.8z"
			/>
		<g class="st3">
			<polygon class="st4" points="37.4,100.7 38,83.7 38.3,100.6 38.2,119.4 			"/>
			<polygon class="st4" points="38,100.3 54.9,100.9 38.1,101.2 19.2,101.1 			"/>
			<polygon class="st5" points="37.5,100.4 47,92.4 38.1,100.9 27.8,110.1 			"/>
			<polygon class="st5" points="38,100.6 46.1,110 37.6,101.1 28.3,90.8 			"/>
		</g>
		<path class="st2" d="M133.4,62.4c0,0.8-0.6,1.4-1.4,1.4c-0.8,0-1.4-0.6-1.4-1.4c0-0.8,0.6-1.4,1.4-1.4
			C132.8,61,133.4,61.6,133.4,62.4z"/>
		<circle class="st2" cx="10.2" cy="64.7" r="0.7"/>
		<path class="st2" d="M4.3,104.5c0,0.4-0.3,0.7-0.7,0.7c-0.4,0-0.7-0.3-0.7-0.7c0-0.4,0.3-0.7,0.7-0.7C4,103.8,4.3,104.2,4.3,104.5
			z"/>
		<path class="st2" d="M25.8,151.6c0,0.4-0.3,0.7-0.7,0.7c-0.4,0-0.7-0.3-0.7-0.7c0-0.4,0.3-0.7,0.7-0.7
			C25.4,150.9,25.8,151.2,25.8,151.6z"/>
		<circle class="st2" cx="10.2" cy="143" r="0.4"/>
		<circle class="st2" cx="50.9" cy="112.7" r="0.4"/>
		<circle class="st2" cx="1.3" cy="151.8" r="0.4"/>
		<circle class="st2" cx="8" cy="168.4" r="0.4"/>
		<circle class="st2" cx="33.8" cy="168.3" r="0.4"/>
		<circle class="st2" cx="88.5" cy="149.3" r="0.4"/>
		<circle class="st2" cx="35.3" cy="189.3" r="0.4"/>
		<path class="st2" d="M112.9,30.7c0,0.8-0.6,1.4-1.4,1.4c-0.8,0-1.4-0.6-1.4-1.4c0-0.8,0.6-1.4,1.4-1.4
			C112.3,29.2,112.9,29.9,112.9,30.7z"/>
		<circle class="st2" cx="188.2" cy="29.6" r="1.4"/>
		<path class="st2" d="M84.4,14.6c0,0.8-0.6,1.4-1.4,1.4s-1.4-0.6-1.4-1.4s0.6-1.4,1.4-1.4S84.4,13.9,84.4,14.6z"/>
		<path class="st2" d="M256.6,35.4c0,0.8-0.6,1.4-1.4,1.4c-0.8,0-1.4-0.6-1.4-1.4c0-0.8,0.6-1.4,1.4-1.4
			C255.9,34,256.6,34.6,256.6,35.4z"/>
		<circle class="st2" cx="126.6" cy="20.1" r="0.7"/>
		<path class="st2" d="M156.4,16.4c0,0.4-0.3,0.7-0.7,0.7c-0.4,0-0.7-0.3-0.7-0.7c0-0.4,0.3-0.7,0.7-0.7
			C156.1,15.7,156.4,16.1,156.4,16.4z"/>
		<path class="st2" d="M127.1,59.6c0,0.4-0.3,0.7-0.7,0.7s-0.7-0.3-0.7-0.7c0-0.4,0.3-0.7,0.7-0.7S127.1,59.3,127.1,59.6z"/>
		<circle class="st2" cx="105.8" cy="104.4" r="0.4"/>
		<circle class="st2" cx="162.3" cy="54.9" r="0.4"/>
		<circle class="st2" cx="153.4" cy="63.7" r="0.4"/>
		<circle class="st2" cx="148.5" cy="70.4" r="0.4"/>
		<circle class="st2" cx="47.8" cy="64" r="0.4"/>
		<path class="st2" d="M108.8,84.7c0,0.4-0.3,0.7-0.7,0.7c-0.4,0-0.7-0.3-0.7-0.7s0.3-0.7,0.7-0.7C108.4,84,108.8,84.3,108.8,84.7z"
			/>
		<path class="st2" d="M221.9,14.4c0,0.4-0.3,0.7-0.7,0.7c-0.4,0-0.7-0.3-0.7-0.7c0-0.4,0.3-0.7,0.7-0.7
			C221.6,13.7,221.9,14,221.9,14.4z"/>
		<path class="st2" d="M113.3,176.9c0,0.8-0.6,1.4-1.4,1.4s-1.4-0.6-1.4-1.4c0-0.8,0.6-1.4,1.4-1.4S113.3,176.1,113.3,176.9z"/>
		<path class="st2" d="M79.8,182.8c0,0.8-0.6,1.4-1.4,1.4c-0.8,0-1.4-0.6-1.4-1.4s0.6-1.4,1.4-1.4C79.2,181.4,79.8,182.1,79.8,182.8
			z"/>
		<path class="st2" d="M28.2,240c0,0.8-0.6,1.4-1.4,1.4c-0.8,0-1.4-0.6-1.4-1.4s0.6-1.4,1.4-1.4C27.6,238.6,28.2,239.2,28.2,240z"/>
		<path class="st2" d="M214.4,100.8c0,0.8-0.6,1.4-1.4,1.4c-0.8,0-1.4-0.6-1.4-1.4s0.6-1.4,1.4-1.4
			C213.7,99.4,214.4,100,214.4,100.8z"/>
		<circle class="st2" cx="307.2" cy="62.4" r="1.4"/>
		<circle class="st2" cx="200.2" cy="59.9" r="0.7"/>
		<path class="st2" d="M82.9,128.4c0,0.4-0.3,0.7-0.7,0.7s-0.7-0.3-0.7-0.7c0-0.4,0.3-0.7,0.7-0.7S82.9,128,82.9,128.4z"/>
		<circle class="st2" cx="153" cy="90.4" r="0.7"/>
		<circle class="st2" cx="245" cy="111.1" r="0.7"/>
		<path class="st2" d="M150.1,147.7c0,0.4-0.3,0.7-0.7,0.7c-0.4,0-0.7-0.3-0.7-0.7c0-0.4,0.3-0.7,0.7-0.7
			C149.8,147,150.1,147.4,150.1,147.7z"/>
		<path class="st2" d="M86.1,67.1c0,0.4-0.3,0.7-0.7,0.7s-0.7-0.3-0.7-0.7s0.3-0.7,0.7-0.7S86.1,66.7,86.1,67.1z"/>
		<path class="st2" d="M143.4,167.7c0,0.4-0.3,0.7-0.7,0.7c-0.4,0-0.7-0.3-0.7-0.7c0-0.4,0.3-0.7,0.7-0.7
			C143.1,166.9,143.4,167.3,143.4,167.7z"/>
		<circle class="st2" cx="163.8" cy="156.1" r="0.4"/>
		<circle class="st2" cx="185.3" cy="143" r="0.4"/>
		<circle class="st2" cx="226.1" cy="112.7" r="0.4"/>
		<circle class="st2" cx="219" cy="89.6" r="0.4"/>
		<circle class="st2" cx="183.1" cy="168.4" r="0.4"/>
		<circle class="st2" cx="265" cy="81.2" r="0.4"/>
		<circle class="st2" cx="263.7" cy="149.3" r="0.4"/>
		<circle class="st2" cx="137.5" cy="218.4" r="0.4"/>
		<circle class="st2" cx="185.4" cy="194.9" r="0.4"/>
		<circle class="st2" cx="210.5" cy="189.3" r="0.4"/>
		<circle class="st2" cx="222.2" cy="183.2" r="0.4"/>
		<circle class="st2" cx="220" cy="175.8" r="0.4"/>
		<path class="st2" d="M172.1,147.2c0.2,0,0.3,0.2,0.3,0.5c0,0.2-0.2,0.3-0.5,0.3c-0.2,0-0.3-0.2-0.3-0.5
			C171.7,147.3,171.9,147.1,172.1,147.2z"/>
		<circle class="st2" cx="132.7" cy="223.7" r="0.4"/>
		<circle class="st2" cx="148.1" cy="114.2" r="0.4"/>
		<circle class="st2" cx="173.2" cy="123.5" r="0.4"/>
		<circle class="st2" cx="390" cy="84.5" r="0.4"/>
		<path class="st2" d="M398.3,75.7c0.2,0,0.3,0.2,0.3,0.5c0,0.2-0.2,0.3-0.5,0.3c-0.2,0-0.3-0.2-0.3-0.5
			C397.9,75.8,398.1,75.6,398.3,75.7z"/>
		<circle class="st2" cx="399.4" cy="52" r="0.4"/>
		<circle class="st2" cx="120.6" cy="121.5" r="0.4"/>
		<path class="st2" d="M400.7,102.6c-0.1,0.8-0.9,1.3-1.6,1.1c-0.8-0.1-1.3-0.9-1.1-1.6c0.1-0.8,0.9-1.3,1.6-1.1
			C400.3,101.1,400.8,101.8,400.7,102.6z"/>
		<circle class="st2" cx="83.1" cy="201.7" r="0.4"/>
		<circle class="st2" cx="112.2" cy="199.2" r="0.4"/>
		<circle class="st2" cx="65.8" cy="186.5" r="0.7"/>
		<circle class="st2" cx="93.7" cy="238.4" r="0.7"/>
		<circle class="st2" cx="397.9" cy="206.5" r="0.4"/>
		<path class="st2" d="M299.9,84.3c0,0.4-0.3,0.7-0.7,0.7s-0.7-0.3-0.7-0.7s0.3-0.7,0.7-0.7S299.9,83.9,299.9,84.3z"/>
		<circle class="st2" cx="278.6" cy="129" r="0.4"/>
		<circle class="st2" cx="335.1" cy="79.5" r="0.4"/>
		<circle class="st2" cx="200.2" cy="32.4" r="0.4"/>
		<circle class="st2" cx="367.4" cy="26" r="0.4"/>
		<circle class="st2" cx="326.6" cy="47.6" r="0.4"/>
		<circle class="st2" cx="321.3" cy="95" r="0.4"/>
		<path class="st2" d="M229.1,82.3c-0.2,0-0.4-0.1-0.4-0.3c0-0.2,0.1-0.4,0.3-0.4c0.2,0,0.4,0.1,0.4,0.3
			C229.5,82.1,229.3,82.3,229.1,82.3z"/>
		<path class="st2" d="M281.6,109.3c0,0.4-0.3,0.7-0.7,0.7c-0.4,0-0.7-0.3-0.7-0.7c0-0.4,0.3-0.7,0.7-0.7
			C281.2,108.6,281.6,108.9,281.6,109.3z"/>
		<circle class="st2" cx="57.1" cy="25.6" r="0.7"/>
		<path class="st2" d="M269.4,200.6c0,0.8-0.6,1.4-1.4,1.4c-0.8,0-1.4-0.6-1.4-1.4c0-0.8,0.6-1.4,1.4-1.4
			C268.8,199.2,269.4,199.8,269.4,200.6z"/>
		<path class="st2" d="M157.6,216.1c0,0.8-0.6,1.4-1.4,1.4s-1.4-0.6-1.4-1.4c0-0.8,0.6-1.4,1.4-1.4S157.6,215.3,157.6,216.1z"/>
		<path class="st2" d="M214.6,220.8c0,0.8-0.6,1.4-1.4,1.4s-1.4-0.6-1.4-1.4c0-0.8,0.6-1.4,1.4-1.4S214.6,220.1,214.6,220.8z"/>
		<path class="st2" d="M156.6,242.5c0,0.8-0.6,1.4-1.4,1.4c-0.8,0-1.4-0.6-1.4-1.4c0-0.8,0.6-1.4,1.4-1.4
			C156,241.1,156.6,241.8,156.6,242.5z"/>
		<path class="st2" d="M201.2,249.9c0,0.8-0.6,1.4-1.4,1.4s-1.4-0.6-1.4-1.4s0.6-1.4,1.4-1.4S201.2,249.1,201.2,249.9z"/>
		<path class="st2" d="M132,192.5c0,0.8-0.6,1.4-1.4,1.4s-1.4-0.6-1.4-1.4s0.6-1.4,1.4-1.4S132,191.7,132,192.5z"/>
		<path class="st2" d="M387.2,125.4c0,0.8-0.6,1.4-1.4,1.4c-0.8,0-1.4-0.6-1.4-1.4s0.6-1.4,1.4-1.4
			C386.5,124,387.2,124.6,387.2,125.4z"/>
		<path class="st2" d="M373.7,84.5c0,0.4-0.3,0.7-0.7,0.7c-0.4,0-0.7-0.3-0.7-0.7s0.3-0.7,0.7-0.7C373.4,83.8,373.7,84.1,373.7,84.5
			z"/>
		<path class="st2" d="M255.7,153c0,0.4-0.3,0.7-0.7,0.7c-0.4,0-0.7-0.3-0.7-0.7c0-0.4,0.3-0.7,0.7-0.7
			C255.4,152.3,255.7,152.6,255.7,153z"/>
		<circle class="st2" cx="361" cy="43.9" r="0.7"/>
		<circle class="st2" cx="352.2" cy="19.3" r="0.7"/>
		<circle class="st2" cx="339.3" cy="116.8" r="0.7"/>
		<circle class="st2" cx="258.2" cy="91.7" r="0.7"/>
		<path class="st2" d="M304.9,206.9c0,0.4-0.3,0.7-0.7,0.7s-0.7-0.3-0.7-0.7c0-0.4,0.3-0.7,0.7-0.7S304.9,206.5,304.9,206.9z"/>
		<circle class="st2" cx="336.6" cy="180.7" r="0.4"/>
		<circle class="st2" cx="358.1" cy="167.7" r="0.4"/>
		<circle class="st2" cx="398.9" cy="137.3" r="0.4"/>
		<circle class="st2" cx="383.7" cy="117.7" r="0.4"/>
		<path class="st2" d="M316.3,160.3c0,0.8-0.6,1.4-1.4,1.4c-0.8,0-1.4-0.6-1.4-1.4c0-0.8,0.6-1.4,1.4-1.4
			C315.7,158.9,316.3,159.5,316.3,160.3z"/>
		<path class="st2" d="M259.2,291c0,0.8-0.6,1.4-1.4,1.4c-0.8,0-1.4-0.6-1.4-1.4c0-0.8,0.6-1.4,1.4-1.4
			C258.6,289.6,259.2,290.3,259.2,291z"/>
		<circle class="st2" cx="272.8" cy="306.8" r="0.7"/>
		<circle class="st2" cx="346.7" cy="284.1" r="0.7"/>
		<circle class="st2" cx="296.9" cy="299.6" r="0.4"/>
		<circle class="st2" cx="317.8" cy="268.6" r="0.4"/>
		<circle class="st2" cx="339" cy="267.2" r="0.4"/>
		<circle class="st2" cx="247" cy="273.6" r="0.4"/>
		<circle class="st2" cx="320.2" cy="298.8" r="0.4"/>
		<circle class="st2" cx="366.6" cy="270.8" r="0.4"/>
		<path class="st2" d="M344.9,171.8c0.2,0,0.3,0.2,0.3,0.5c0,0.2-0.2,0.3-0.5,0.3c-0.2,0-0.3-0.2-0.3-0.5
			C344.5,171.9,344.7,171.8,344.9,171.8z"/>
		<path class="st2" d="M337,235.2c0.2,0,0.3,0.2,0.3,0.5c0,0.2-0.2,0.3-0.5,0.3c-0.2,0-0.3-0.2-0.3-0.5
			C336.6,235.3,336.8,235.2,337,235.2z"/>
		<circle class="st2" cx="300.6" cy="268" r="0.4"/>
		<circle class="st2" cx="320.9" cy="138.8" r="0.4"/>
		<path class="st2" d="M346.4,148.1c0,0.2-0.2,0.4-0.4,0.4c-0.2,0-0.4-0.2-0.4-0.4c0-0.2,0.2-0.4,0.4-0.4
			C346.3,147.7,346.4,147.9,346.4,148.1z"/>
		<circle class="st2" cx="293.4" cy="146.1" r="0.4"/>
		<circle class="st2" cx="359.6" cy="212.5" r="0.4"/>
		<path class="st2" d="M385.9,290.4c0,0.4-0.3,0.7-0.7,0.7c-0.4,0-0.7-0.3-0.7-0.7c0-0.4,0.3-0.7,0.7-0.7
			C385.6,289.6,385.9,290,385.9,290.4z"/>
		<circle class="st2" cx="318.3" cy="42.3" r="0.4"/>
		<circle class="st2" cx="299.5" cy="73.9" r="0.4"/>
		<circle class="st2" cx="345.9" cy="45.9" r="0.4"/>
		<path class="st2" d="M336,29.1c-0.2,0.1-0.4,0.1-0.5-0.1c-0.1-0.2-0.1-0.4,0.1-0.5c0.2-0.1,0.4-0.1,0.5,0.1
			C336.2,28.8,336.2,29,336,29.1z"/>
		<path class="st2" d="M316.3,10.3c0.2,0,0.3,0.2,0.3,0.5c0,0.2-0.2,0.3-0.5,0.3c-0.2,0-0.3-0.2-0.3-0.5
			C315.9,10.4,316.1,10.2,316.3,10.3z"/>
		<circle class="st2" cx="279.9" cy="43.1" r="0.4"/>
		<path class="st2" d="M365.3,65.4c0,0.4-0.3,0.7-0.7,0.7c-0.4,0-0.7-0.3-0.7-0.7c0-0.4,0.3-0.7,0.7-0.7
			C365,64.7,365.3,65.1,365.3,65.4z"/>
		<circle class="st2" cx="383.4" cy="17.5" r="0.7"/>
		<circle class="st2" cx="397" cy="39.2" r="0.4"/>
		<circle class="st2" cx="374.4" cy="229.5" r="0.4"/>
		<circle class="st2" cx="255.9" cy="226.3" r="0.4"/>
		<circle class="st2" cx="221.5" cy="272.3" r="0.4"/>
		<circle class="st2" cx="285" cy="223.8" r="0.4"/>
		<circle class="st2" cx="257.4" cy="276.8" r="0.4"/>
		<circle class="st2" cx="238.6" cy="211.1" r="0.7"/>
		<path class="st2" d="M232.6,179.9c0,0.4-0.3,0.7-0.7,0.7c-0.4,0-0.7-0.3-0.7-0.7c0-0.4,0.3-0.7,0.7-0.7
			C232.3,179.1,232.6,179.5,232.6,179.9z"/>
		<path class="st2" d="M29.8,218.5c0,0.4-0.3,0.7-0.7,0.7s-0.7-0.3-0.7-0.7s0.3-0.7,0.7-0.7S29.8,218.1,29.8,218.5z"/>
		<circle class="st2" cx="10.1" cy="220" r="0.4"/>
		<circle class="st2" cx="3.1" cy="197" r="0.4"/>
		<circle class="st2" cx="0.6" cy="293.2" r="0.4"/>
		<circle class="st2" cx="15" cy="189.6" r="0.4"/>
		<path class="st2" d="M375,276.5c0,0.4-0.3,0.7-0.7,0.7c-0.4,0-0.7-0.3-0.7-0.7c0-0.4,0.3-0.7,0.7-0.7
			C374.6,275.8,375,276.2,375,276.5z"/>
		<path class="st2" d="M384,300.7c0,0.4-0.3,0.7-0.7,0.7c-0.4,0-0.7-0.3-0.7-0.7c0-0.4,0.3-0.7,0.7-0.7
			C383.7,300,384,300.3,384,300.7z"/>
		<circle class="st2" cx="388.7" cy="284.9" r="0.4"/>
		<path class="st2" d="M48.5,317.1c0,0.2-0.2,0.4-0.4,0.4s-0.4-0.2-0.4-0.4c0-0.2,0.2-0.4,0.4-0.4S48.5,316.8,48.5,317.1z"/>
		<circle class="st2" cx="3.8" cy="309.6" r="0.4"/>
		<path class="st2" d="M67.4,336.6c0,0.4-0.3,0.7-0.7,0.7S66,337,66,336.6s0.3-0.7,0.7-0.7S67.4,336.2,67.4,336.6z"/>
		<circle class="st2" cx="37" cy="319.9" r="0.4"/>
		<circle class="st2" cx="55.7" cy="322.8" r="0.7"/>
		<path class="st2" d="M118.5,325.8c0,0.4-0.3,0.7-0.7,0.7s-0.7-0.3-0.7-0.7c0-0.4,0.3-0.7,0.7-0.7S118.5,325.4,118.5,325.8z"/>
		<circle class="st2" cx="70.2" cy="331.1" r="0.4"/>
		<circle class="st2" cx="396.4" cy="287.3" r="0.4"/>
		<circle class="st2" cx="286.9" cy="259.1" r="0.4"/>
		<path class="st2" d="M397,276c0.2,0,0.3,0.2,0.3,0.5c0,0.2-0.2,0.3-0.5,0.3c-0.2,0-0.3-0.2-0.3-0.5
			C396.6,276.1,396.8,275.9,397,276z"/>
		<circle class="st2" cx="291.5" cy="248" r="0.4"/>
		<path class="st2" d="M303.3,251.6c0,0.8-0.6,1.4-1.4,1.4c-0.8,0-1.4-0.6-1.4-1.4c0-0.8,0.6-1.4,1.4-1.4
			C302.7,250.2,303.3,250.8,303.3,251.6z"/>
		<circle class="st2" cx="315" cy="263.5" r="0.4"/>
		<circle class="st2" cx="308" cy="240.4" r="0.4"/>
		<path class="st2" d="M25,285.6c0,0.8-0.6,1.4-1.4,1.4c-0.8,0-1.4-0.6-1.4-1.4c0-0.8,0.6-1.4,1.4-1.4C24.4,284.2,25,284.8,25,285.6
			z"/>
		<path class="st2" d="M39.8,260.4c0,0.4-0.3,0.7-0.7,0.7s-0.7-0.3-0.7-0.7s0.3-0.7,0.7-0.7S39.8,260,39.8,260.4z"/>
		<path class="st2" d="M23.4,318.5c0,0.4-0.3,0.7-0.7,0.7c-0.4,0-0.7-0.3-0.7-0.7c0-0.4,0.3-0.7,0.7-0.7
			C23,317.8,23.4,318.1,23.4,318.5z"/>
		<path class="st2" d="M208.9,280.9c0,0.4-0.3,0.7-0.7,0.7c-0.4,0-0.7-0.3-0.7-0.7c0-0.4,0.3-0.7,0.7-0.7
			C208.6,280.2,208.9,280.5,208.9,280.9z"/>
		<circle class="st2" cx="53" cy="288.9" r="0.7"/>
		<circle class="st2" cx="85.4" cy="262.7" r="0.4"/>
		<circle class="st2" cx="104.7" cy="275" r="0.4"/>
		<circle class="st2" cx="91.8" cy="313.8" r="0.4"/>
		<circle class="st2" cx="132.1" cy="295.9" r="0.4"/>
		<circle class="st2" cx="83.3" cy="311.2" r="0.4"/>
		<path class="st2" d="M191,307.2c0,0.8-0.6,1.4-1.4,1.4c-0.8,0-1.4-0.6-1.4-1.4c0-0.8,0.6-1.4,1.4-1.4
			C190.4,305.8,191,306.4,191,307.2z"/>
		<path class="st2" d="M145.4,293.8c0,0.8-0.6,1.4-1.4,1.4c-0.8,0-1.4-0.6-1.4-1.4c0-0.8,0.6-1.4,1.4-1.4
			C144.8,292.4,145.4,293,145.4,293.8z"/>
		<path class="st2" d="M177.3,259.6c0,0.4-0.3,0.7-0.7,0.7c-0.4,0-0.7-0.3-0.7-0.7s0.3-0.7,0.7-0.7
			C177,258.9,177.3,259.2,177.3,259.6z"/>
		<path class="st2" d="M248.5,296c0,0.4-0.3,0.7-0.7,0.7c-0.4,0-0.7-0.3-0.7-0.7c0-0.4,0.3-0.7,0.7-0.7
			C248.2,295.3,248.5,295.6,248.5,296z"/>
		<circle class="st2" cx="222.2" cy="374.6" r="0.4"/>
		<circle class="st2" cx="182.6" cy="292.5" r="0.4"/>
		<circle class="st2" cx="209.1" cy="276.3" r="0.4"/>
		<circle class="st2" cx="160.2" cy="317.7" r="0.7"/>
		<path class="st2" d="M150.6,330.1c0,0.4-0.3,0.7-0.7,0.7c-0.4,0-0.7-0.3-0.7-0.7c0-0.4,0.3-0.7,0.7-0.7
			C150.3,329.4,150.6,329.7,150.6,330.1z"/>
		<circle class="st2" cx="115.4" cy="294.8" r="0.7"/>
	</g>
	
		<linearGradient id="SVGID_00000052070333635806805560000014696216113379228327_" gradientUnits="userSpaceOnUse" x1="-56.036" y1="950.0838" x2="-29.566" y2="950.0838" gradientTransform="matrix(0.9013 -0.4336 0.4335 0.9011 -134.6358 -739.1617)">
		<stop  offset="0" style="stop-color:#FFFFFF"/>
		<stop  offset="1" style="stop-color:#FFFFFF;stop-opacity:0"/>
	</linearGradient>
	
		<path style="clip-path:url(#SVGID_00000003812586301637587980000001056280023044938150_);fill:url(#SVGID_00000052070333635806805560000014696216113379228327_);" d="
		M250.6,129.8c0.2,0.4-22.2,11.7-22.7,11.9c-0.4,0.2-1,0-1.2-0.4c-0.2-0.4,0-1,0.4-1.2C227.6,139.9,250.4,129.3,250.6,129.8z"/>
	
		<linearGradient id="SVGID_00000029042278310580397990000001046714968042611334_" gradientUnits="userSpaceOnUse" x1="18.3845" y1="1044.1425" x2="36.7081" y2="1044.1425" gradientTransform="matrix(0.9013 -0.4336 0.4335 0.9011 -134.6358 -739.1617)">
		<stop  offset="0" style="stop-color:#FFFFFF"/>
		<stop  offset="1" style="stop-color:#FFFFFF;stop-opacity:0"/>
	</linearGradient>
	
		<path style="clip-path:url(#SVGID_00000003812586301637587980000001056280023044938150_);fill:url(#SVGID_00000029042278310580397990000001046714968042611334_);" d="
		M350.6,184.8c0.2,0.4-14.2,9.5-14.7,9.7c-0.4,0.2-1,0-1.2-0.4c-0.2-0.4,0-1,0.4-1.2C335.6,192.7,350.4,184.4,350.6,184.8z"/>
	
		<linearGradient id="SVGID_00000132803555926694107800000002436162975342847669_" gradientUnits="userSpaceOnUse" x1="77.8298" y1="931.0451" x2="130.346" y2="931.0451" gradientTransform="matrix(0.9013 -0.4336 0.4335 0.9011 -134.6358 -739.1617)">
		<stop  offset="0" style="stop-color:#FFFFFF"/>
		<stop  offset="1" style="stop-color:#FFFFFF;stop-opacity:0"/>
	</linearGradient>
	
		<path style="clip-path:url(#SVGID_00000003812586301637587980000001056280023044938150_);fill:url(#SVGID_00000132803555926694107800000002436162975342847669_);" d="
		M386.6,43.6c0.2,0.4-45.8,22.7-46.3,22.9c-0.4,0.2-1,0-1.2-0.4c-0.2-0.4,0-1,0.4-1.2C340,64.7,386.4,43.2,386.6,43.6z"/>
	<g style="clip-path:url(#SVGID_00000003812586301637587980000001056280023044938150_);">
		<defs>
			<path id="XMLID_30_" d="M-165.6,351c0,0,42.7,23.6,95.4,22.7c51.8-0.9,92.6-29.1,95.4-29.1s31.8,11.8,55.4,12.7
				c23.6,0.9,144.4-28.2,158-37.2c2.3-1.5,57.2,22.7,57.2,22.7s26.3-11.8,53.6-32.7c22.7,18.2,70.8,35.4,70.8,35.4
				s79,24.5,139.9,16.3c0,22.7,0,44.9,0,44.9h-727.4L-165.6,351z"/>
		</defs>
		<use xlink:href="#XMLID_30_"  style="overflow:visible;fill:#3C352F;"/>
		<clipPath id="XMLID_00000087400299341028407180000003049656291956717218_">
			<use xlink:href="#XMLID_30_"  style="overflow:visible;"/>
		</clipPath>
		<path style="clip-path:url(#XMLID_00000087400299341028407180000003049656291956717218_);fill:#453D38;" d="M-180.9,354.1
			c48.7,21.1,141.5,40.4,193.5,50.7c-6.1-6.8-57.4-20.3-63.4-27.1c26.3-7.1,55.4-13.3,79.9-25.1c20.3,16.9,50.1,13.6,76.2,9.4
			c20.9-3.4,41.8-6.8,62.7-10.2c-2.8,5-20.5,19.1-15.3,16.5c17.4-8.7,62.3-29.7,79.8-38.4c3.4-1.7,6.9-3.4,10.6-3.4
			c4.5,0,8.7,2.4,12.5,4.8c9.9,6.4,29.6,13.2,41,16.1c11.4,2.9,15.3,0.1,20.3-10.5c10.9,6.3,26.9,0.2,30.8-11.8
			c39.5,22.5,78.8,26.2,133,42.4c13.9,4.2,28.1,1.7,42.5,2.3c19.2,0.8,32.8,3.2,51.9,1.4c6.9-0.6,15-3.9,15.9-10.8
			c1.3-9.9-12.1-14.1-22.1-14.8c-31.9-2.2-63.5-7.3-94.5-15.3c-47.6-12.3-93.5-31.2-141.7-40.9c-58.9-11.8-119.6-9.6-179.5-6.5
			c-63.9,3.2-128.2,7.3-190.6,21.6c-44.7,10.3-89.6,25.9-135.2,20.9"/>
	</g>
</g>
</svg>
